<svg width="82" height="83" viewBox="0 0 82 83" fill="none" xmlns="http://www.w3.org/2000/svg">
<path d="M30.8803 7.75711C22.0112 7.75711 14.8008 14.9675 14.8008 23.8366C14.8008 32.5365 21.605 39.5776 30.4741 39.8823C30.7449 39.8484 31.0157 39.8484 31.2188 39.8823C31.2865 39.8823 31.3204 39.8823 31.3881 39.8823C31.4219 39.8823 31.4219 39.8823 31.4558 39.8823C40.1218 39.5776 46.926 32.5365 46.9598 23.8366C46.9598 14.9675 39.7494 7.75711 30.8803 7.75711Z" fill="white"/>
<path d="M48.0757 48.8859C38.6312 42.5896 23.2288 42.5896 13.7166 48.8859C9.41745 51.7633 7.04785 55.6562 7.04785 59.8199C7.04785 63.9836 9.41745 67.8427 13.6827 70.6862C18.4219 73.8682 24.6506 75.4592 30.8792 75.4592C37.1078 75.4592 43.3365 73.8682 48.0757 70.6862C52.341 67.8088 54.7106 63.9498 54.7106 59.7522C54.6767 55.5885 52.341 51.7294 48.0757 48.8859Z" fill="white"/>
<path d="M68.082 25.8334C68.6236 32.4005 63.9522 38.1551 57.4867 38.9337C57.4529 38.9337 57.4529 38.9337 57.419 38.9337H57.3175C57.1144 38.9337 56.9112 38.9337 56.742 39.0014C53.4585 39.1707 50.4457 38.1213 48.1777 36.1918C51.6644 33.0775 53.6616 28.4061 53.2554 23.3285C53.0184 20.5866 52.0706 18.0816 50.6488 15.949C51.9352 15.3058 53.4246 14.8996 54.9479 14.7642C61.5827 14.1888 67.5066 19.131 68.082 25.8334Z" fill="white"/>
<path d="M74.8529 57.1456C74.5821 60.4291 72.4833 63.2726 68.9628 65.2021C65.5777 67.064 61.3124 67.9441 57.081 67.8425C59.5183 65.6422 60.9401 62.9003 61.2109 59.9891C61.5494 55.7915 59.5522 51.7632 55.5577 48.5474C53.2897 46.7533 50.6493 45.3315 47.772 44.2821C55.2531 42.1157 64.6637 43.5713 70.4523 48.2427C73.5666 50.7477 75.1576 53.8959 74.8529 57.1456Z" fill="white"/>
</svg>
