<svg width="82" height="82" viewBox="0 0 82 82" fill="none" xmlns="http://www.w3.org/2000/svg">
<path d="M66.3564 10.0985L67.3042 12.0281C67.7782 12.976 68.963 13.8561 70.0124 14.0593L71.2988 14.2624C75.158 14.9056 76.072 17.7491 73.2961 20.5589L72.1113 21.7437C71.3327 22.5562 70.8926 24.1134 71.1295 25.1966L71.2988 25.9075C72.3482 30.5791 69.877 32.3733 65.8147 29.9359L64.9346 29.4282C63.8852 28.8188 62.1925 28.8188 61.1431 29.4282L60.263 29.9359C56.1669 32.4072 53.6956 30.5791 54.7789 25.9075L54.9482 25.1966C55.1851 24.1134 54.7451 22.5562 53.9665 21.7437L52.7816 20.525C50.0057 17.7153 50.9198 14.8717 54.7789 14.2285L56.0653 14.0254C57.0809 13.8561 58.2995 12.9421 58.7735 11.9943L59.7213 10.0647C61.5494 6.40865 64.5284 6.40865 66.3564 10.0985Z" fill="white"/>
<path d="M73.431 34.708C72.2123 35.5882 68.7934 37.213 63.9188 34.708C63.3772 34.4372 62.7002 34.4034 62.1586 34.708C60.2291 35.6897 58.4688 36.0959 57.0809 36.0959C54.9145 36.0959 53.3912 35.2497 52.6465 34.708C51.394 33.7941 48.7536 31.1875 49.6676 25.6698C49.7691 25.0944 49.5999 24.5189 49.2275 24.0788C46.8918 21.4046 45.6055 17.8164 46.5194 15.0068C46.8579 13.8897 46.1471 12.4002 44.9961 12.4002H24.1101C13.9548 12.4002 7.18457 17.4779 7.18457 29.3257V53.0214C7.18457 64.8693 13.9548 69.9469 24.1101 69.9469H57.9611C68.1164 69.9469 74.8866 64.8693 74.8866 53.0214V35.3174C74.8866 34.6742 73.9726 34.3357 73.431 34.708ZM48.9567 41.4782C46.7225 43.2723 43.8791 44.1525 41.0356 44.1525C38.1921 44.1525 35.3148 43.2723 33.1144 41.4782L22.5191 33.0155C21.4358 32.1354 21.2666 30.5105 22.1129 29.4273C22.993 28.3441 24.584 28.141 25.6672 29.0211L36.2626 37.4838C38.8353 39.5487 43.202 39.5487 45.7747 37.4838C46.8579 36.6037 48.4489 36.773 49.3291 37.89C50.243 38.9733 50.0738 40.5981 48.9567 41.4782Z" fill="white"/>
</svg>
