<svg width="82" height="82" viewBox="0 0 82 82" fill="none" xmlns="http://www.w3.org/2000/svg">
<path d="M45.5745 28.0055L50.0428 36.9421C50.6521 38.1607 52.277 39.3794 53.631 39.5825L61.7213 40.9365C66.9005 41.8166 68.1192 45.5402 64.3956 49.2638L58.0993 55.5939C57.0499 56.6433 56.4406 58.7082 56.7791 60.1976L58.5732 68.0172C59.9949 74.178 56.7114 76.5814 51.2614 73.3656L43.6789 68.8634C42.291 68.051 40.0568 68.051 38.6689 68.8634L31.0525 73.3317C25.6025 76.5476 22.319 74.1442 23.7407 67.9833L25.5348 60.1638C25.8733 58.7082 25.264 56.6433 24.2146 55.5601L17.9522 49.2977C14.2286 45.5741 15.4473 41.8166 20.6264 40.9704L28.7168 39.6163C30.0708 39.3794 31.6957 38.1946 32.305 36.976L36.7733 28.0393C39.1767 23.1648 43.1711 23.1648 45.5745 28.0055Z" fill="white"/>
<path d="M20.8636 33.5575C19.4757 33.5575 18.3247 32.4065 18.3247 31.0186V7.3227C18.3247 5.93479 19.4757 4.78384 20.8636 4.78384C22.2515 4.78384 23.4024 5.93479 23.4024 7.3227V31.0186C23.4024 32.4065 22.2515 33.5575 20.8636 33.5575Z" fill="white"/>
<path d="M61.4856 33.5575C60.0977 33.5575 58.9468 32.4065 58.9468 31.0186V7.3227C58.9468 5.93479 60.0977 4.78384 61.4856 4.78384C62.8735 4.78384 64.0245 5.93479 64.0245 7.3227V31.0186C64.0245 32.4065 62.8735 33.5575 61.4856 33.5575Z" fill="white"/>
<path d="M41.1742 16.6322C39.7862 16.6322 38.6353 15.4813 38.6353 14.0933V7.32279C38.6353 5.93483 39.7862 4.78384 41.1742 4.78384C42.5622 4.78384 43.7131 5.93483 43.7131 7.32279V14.0933C43.7131 15.4813 42.5622 16.6322 41.1742 16.6322Z" fill="white"/>
</svg>
