<svg width="82" height="83" viewBox="0 0 82 83" fill="none" xmlns="http://www.w3.org/2000/svg">
<path d="M54.7138 7.75624H27.633C15.7852 7.75624 10.7075 14.5264 10.7075 24.6817V58.5327C10.7075 68.688 15.7852 75.4582 27.633 75.4582H54.7138C66.5617 75.4582 71.6393 68.688 71.6393 58.5327V24.6817C71.6393 14.5264 66.5617 7.75624 54.7138 7.75624ZM27.633 42.4535H41.1734C42.5613 42.4535 43.7122 43.6045 43.7122 44.9923C43.7122 46.3802 42.5613 47.5312 41.1734 47.5312H27.633C26.2451 47.5312 25.0942 46.3802 25.0942 44.9923C25.0942 43.6045 26.2451 42.4535 27.633 42.4535ZM54.7138 61.0716H27.633C26.2451 61.0716 25.0942 59.9206 25.0942 58.5327C25.0942 57.1448 26.2451 55.9939 27.633 55.9939H54.7138C56.1017 55.9939 57.2526 57.1448 57.2526 58.5327C57.2526 59.9206 56.1017 61.0716 54.7138 61.0716ZM63.1766 32.2982H56.4064C51.261 32.2982 47.0973 28.1345 47.0973 22.9892V16.219C47.0973 14.8311 48.2483 13.6802 49.6362 13.6802C51.0241 13.6802 52.175 14.8311 52.175 16.219V22.9892C52.175 25.3249 54.0706 27.2206 56.4064 27.2206H63.1766C64.5645 27.2206 65.7154 28.3715 65.7154 29.7594C65.7154 31.1473 64.5645 32.2982 63.1766 32.2982Z" fill="white"/>
</svg>
