<svg width="28" height="28" viewBox="0 0 28 28" fill="none" xmlns="http://www.w3.org/2000/svg">
<path d="M23.5551 16.4042L22.2367 14.2109C21.9451 13.7326 21.6884 12.8109 21.6884 12.2509V10.0692C21.6884 5.83424 18.2467 2.39258 14.0234 2.39258C9.78841 2.40424 6.34674 5.83424 6.34674 10.0692V12.2392C6.34674 12.7992 6.09007 13.7209 5.81007 14.1992L4.49174 16.3926C3.99007 17.2442 3.87341 18.2126 4.18841 19.0526C4.50341 19.9042 5.21507 20.5809 6.14841 20.8842C7.40841 21.3042 8.68007 21.6076 9.97507 21.8292C10.1034 21.8526 10.2317 21.8642 10.3601 21.8876C10.5234 21.9109 10.6984 21.9342 10.8734 21.9576C11.1767 22.0042 11.4801 22.0392 11.7951 22.0626C12.5301 22.1326 13.2767 22.1676 14.0234 22.1676C14.7584 22.1676 15.4934 22.1326 16.2167 22.0626C16.4851 22.0392 16.7534 22.0159 17.0101 21.9809C17.2201 21.9576 17.4301 21.9342 17.6401 21.8992C17.7684 21.8876 17.8967 21.8642 18.0251 21.8409C19.3317 21.6309 20.6267 21.3042 21.8867 20.8842C22.7851 20.5809 23.4734 19.9042 23.8001 19.0409C24.1267 18.1659 24.0334 17.2092 23.5551 16.4042ZM14.8751 11.6676C14.8751 12.1576 14.4784 12.5542 13.9884 12.5542C13.4984 12.5542 13.1017 12.1576 13.1017 11.6676V8.05091C13.1017 7.56091 13.4984 7.16425 13.9884 7.16425C14.4784 7.16425 14.8751 7.56091 14.8751 8.05091V11.6676Z" fill="#A5A5A5"/>
<path d="M17.3026 23.3457C16.8126 24.699 15.5176 25.6673 14.0009 25.6673C13.0793 25.6673 12.1693 25.294 11.5276 24.629C11.1543 24.279 10.8743 23.8123 10.7109 23.334C10.8626 23.3573 11.0143 23.369 11.1776 23.3923C11.4459 23.4273 11.7259 23.4623 12.0059 23.4857C12.6709 23.544 13.3476 23.579 14.0243 23.579C14.6893 23.579 15.3543 23.544 16.0076 23.4857C16.2526 23.4623 16.4976 23.4507 16.7309 23.4157C16.9176 23.3923 17.1043 23.369 17.3026 23.3457Z" fill="#A5A5A5"/>
</svg>
